<svg xmlns="http://www.w3.org/2000/svg" width="80" height="80" viewBox="0 0 80 80">
  <defs>
    <style>
      .cls-1 {
        fill: #3f4351;
        fill-rule: evenodd;
      }
    </style>
  </defs>
  <path id="dish_trial_3rd_gray_resize_copy" data-name="dish trial 3rd gray resize copy" class="cls-1" d="M211.984,712.008a40,40,0,1,0,40,40A40,40,0,0,0,211.984,712.008Zm0,74a34,34,0,1,1,34-34A34.039,34.039,0,0,1,211.984,786.008Zm14-56a10,10,0,0,0-10,10v6a10,10,0,0,0,8,9.8v20.2h4v-20.2a10,10,0,0,0,8-9.8v-6A10,10,0,0,0,225.984,730.008Zm-18,15.08a5.989,5.989,0,0,1-4,5.631V732.008h-4v18.711a5.991,5.991,0,0,1-4-5.631v-13.12h-4v13.12a10.015,10.015,0,0,0,8,9.8v21.123h4V754.885a10.015,10.015,0,0,0,8-9.8v-13.12h-4v13.12Z" transform="translate(-171.969 -712)"/>
</svg>
