<svg xmlns="http://www.w3.org/2000/svg" viewBox="0 10 216 150">
    <path stroke-width="1" fill="#808080" x="0" y="0" d="M126.4 18.6l-5.1-1.4c-0.7-0.2-1.3-0.1-1.9 0.2 -0.6 0.4-1 0.9-1.3 1.6l-30.4 105.2c-0.2 0.7-0.1 1.4 0.2 2 0.4 0.6 0.9 1 1.6 1.3l5.1 1.4c0.7 0.2 1.3 0.2 1.9-0.2 0.6-0.4 1-0.9 1.3-1.6l30.4-105.2c0.2-0.7 0.1-1.4-0.2-2S127.1 18.8 126.4 18.6zM80.9 39.1c0-0.7-0.3-1.3-0.8-1.9l-4.1-4.1c-0.5-0.5-1.2-0.8-1.9-0.8s-1.3 0.3-1.9 0.8L34.3 71.1c-0.5 0.5-0.8 1.2-0.8 1.9s0.3 1.3 0.8 1.9l38 38c0.5 0.5 1.2 0.8 1.9 0.8s1.3-0.3 1.9-0.8l4.1-4.1c0.5-0.5 0.8-1.2 0.8-1.9 0-0.7-0.3-1.3-0.8-1.9L48 73l32-32C80.6 40.4 80.9 39.8 80.9 39.1zM181.7 71.1l-38-38c-0.5-0.5-1.2-0.8-1.9-0.8 -0.7 0-1.3 0.3-1.9 0.8l-4.1 4.1c-0.5 0.5-0.8 1.2-0.8 1.9s0.3 1.3 0.8 1.9L168 73l-32 32c-0.5 0.5-0.8 1.2-0.8 1.9 0 0.7 0.3 1.3 0.8 1.9l4.1 4.1c0.5 0.5 1.2 0.8 1.9 0.8 0.7 0 1.3-0.3 1.9-0.8l38-38c0.5-0.5 0.8-1.2 0.8-1.9S182.3 71.7 181.7 71.1z"/>
    <text stroke-width="1" fill="#808080" x="50" y="150">CUSTOM HTML</text>
</svg>